<?xml version="1.0" encoding="UTF-8" standalone="no"?>
<!-- Created with Inkscape (http://www.inkscape.org/) -->

<svg
   xmlns:dc="http://purl.org/dc/elements/1.1/"
   xmlns:cc="http://creativecommons.org/ns#"
   xmlns:rdf="http://www.w3.org/1999/02/22-rdf-syntax-ns#"
   xmlns:svg="http://www.w3.org/2000/svg"
   xmlns="http://www.w3.org/2000/svg"
   xmlns:sodipodi="http://sodipodi.sourceforge.net/DTD/sodipodi-0.dtd"
   xmlns:inkscape="http://www.inkscape.org/namespaces/inkscape"
   width="192.881mm"
   height="72.231003mm"
   viewBox="0 0 192.881 72.231003"
   version="1.1"
   id="svg8"
   inkscape:version="0.92.4 (5da689c313, 2019-01-14)"
   sodipodi:docname="bitmap1.svg">
  <defs
     id="defs2" />
  <sodipodi:namedview
     id="base"
     pagecolor="#ffffff"
     bordercolor="#666666"
     borderopacity="1.0"
     inkscape:pageopacity="0.0"
     inkscape:pageshadow="2"
     inkscape:zoom="0.35"
     inkscape:cx="400"
     inkscape:cy="445.71429"
     inkscape:document-units="mm"
     inkscape:current-layer="layer1"
     showgrid="false"
     inkscape:window-width="1360"
     inkscape:window-height="706"
     inkscape:window-x="-8"
     inkscape:window-y="-8"
     inkscape:window-maximized="1"
     inkscape:snap-grids="true" />
  <metadata
     id="metadata5">
    <rdf:RDF>
      <cc:Work
         rdf:about="">
        <dc:format>image/svg+xml</dc:format>
        <dc:type
           rdf:resource="http://purl.org/dc/dcmitype/StillImage" />
        <dc:title></dc:title>
      </cc:Work>
    </rdf:RDF>
  </metadata>
  <g
     inkscape:label="Capa 1"
     inkscape:groupmode="layer"
     id="layer1"
     transform="translate(0,-224.769)">
    <path
       style="fill:#f2f2f2;stroke-width:0.26458335"
       d="m 118.01758,296.76403 c -2.4011,-0.11124 -15.43844,-1.09965 -28.971882,-2.19647 -13.533439,-1.09682 -26.927971,-2.13039 -29.765627,-2.29684 -6.493005,-0.38085 -32.636263,-0.39379 -38.100002,-0.0188 -4.465065,0.3064 -12.6631822,1.3088 -17.5833858,2.14995 -1.7086846,0.29211 -3.21393033,0.53111 -3.34499036,0.53111 -0.48326141,0 -0.21929386,-0.47294 0.35702153,-0.63967 3.81004173,-1.10221 11.08985963,-2.44696 17.92552163,-3.31126 7.198761,-0.91021 13.375815,-1.15598 25.003126,-0.99481 13.423244,0.18605 21.218063,0.69129 39.55521,2.56386 16.545987,1.68966 27.064778,2.6713 31.220838,2.91362 5.76138,0.33592 30.76313,0.32874 37.30625,-0.0107 2.83766,-0.14722 6.98332,-0.50327 9.21259,-0.79122 2.22927,-0.28796 4.31287,-0.51994 4.63021,-0.51552 1.10644,0.0154 -0.20719,0.50914 -2.78406,1.04636 -3.53271,0.73648 -8.33117,1.2756 -14.10145,1.58433 -5.65219,0.30241 -23.91091,0.29411 -30.55937,-0.0139 z m 46.8247,-16.26811 c -0.14192,-0.37327 -0.25804,-1.14015 -0.25804,-1.70417 0,-0.56402 -0.12038,-1.09989 -0.26751,-1.19083 -0.37593,-0.23234 -1.84915,1.30803 -1.84915,1.93344 0,0.61254 -0.65408,1.22863 -1.04675,0.98595 -0.40859,-0.25252 -0.35142,-4.43332 0.0685,-5.00757 0.31336,-0.42855 0.37635,-0.43314 0.69386,-0.0506 0.28198,0.33978 0.93198,0.42077 3.37691,0.42077 1.66524,0 3.25279,0.12047 3.5279,0.2677 0.92485,0.49496 1.45073,3.82943 0.65227,4.13583 -0.60406,0.2318 -1.09622,-0.32271 -1.41695,-1.59645 -0.57936,-2.30084 -1.5146,-2.08563 -1.85557,0.42698 -0.10521,0.77526 -0.2814,1.55537 -0.39154,1.73358 -0.33542,0.54273 -0.9611,0.36289 -1.23391,-0.35466 z m -15.0747,0.15516 c -0.31764,-0.20076 -0.39688,-0.89992 -0.39688,-3.50168 0,-1.78796 0.0896,-3.57032 0.19905,-3.9608 0.25702,-0.9167 1.21772,-1.25303 1.69902,-0.59481 0.65265,0.89256 0.24662,7.61943 -0.48801,8.08516 -0.44386,0.28138 -0.52754,0.27908 -1.01318,-0.0279 z M 40.956928,280.16125 c -2.665984,-0.77391 -3.327768,-2.01367 -1.773161,-3.32179 1.486959,-1.25119 3.443606,-1.46067 4.552032,-0.48734 0.859015,0.75432 0.566981,1.30599 -1.002112,1.89306 -0.805823,0.3015 -1.589651,0.54818 -1.741842,0.54818 -0.152188,0 -0.227692,0.14883 -0.167788,0.33073 0.168188,0.51069 1.154467,0.54312 1.888612,0.0621 0.743212,-0.48697 1.782305,-0.4404 1.956324,0.0877 0.06311,0.19152 -0.135925,0.41376 -0.442296,0.49388 -0.306374,0.0801 -0.557043,0.31038 -0.557043,0.51168 0,0.47193 -0.799981,0.43707 -2.712726,-0.11817 z m 0.632894,-2.68201 0.624623,-0.52036 -0.674687,-0.009 c -0.656088,-0.009 -1.309688,0.40958 -1.309688,0.83786 0,0.38469 0.725009,0.2201 1.359752,-0.30869 z m 13.339626,2.57816 c -0.226531,-0.32342 -0.411877,-0.98497 -0.411877,-1.47012 0,-0.6504 -0.217125,-1.0804 -0.826648,-1.63711 l -0.826651,-0.75503 0.798541,-0.41294 c 0.473366,-0.24479 0.783053,-0.60464 0.760503,-0.8837 -0.02922,-0.36159 0.192177,-0.48982 0.954616,-0.55291 0.844352,-0.0699 1.029026,0.0135 1.23611,0.55819 0.183301,0.48211 0.510069,0.68297 1.322451,0.81288 1.231382,0.1969 1.549453,0.96003 0.400143,0.96003 -1.276234,0 -1.702398,0.43721 -1.702398,1.7465 0,2.05307 -0.844434,2.86254 -1.70479,1.63421 z m 5.524714,0.0406 c -0.70503,-0.77904 -0.698129,-3.32833 0.0104,-3.84642 0.652333,-0.477 3.576892,-0.48896 4.221965,-0.0173 0.933659,0.68271 0.481983,2.28636 -0.643962,2.28636 -0.613095,0 -1.268179,-0.52987 -0.859895,-0.69554 0.467214,-0.18958 0.412202,-0.88385 -0.07004,-0.88385 -0.527785,0 -1.449078,1.53407 -1.450329,2.415 -0.0016,1.0478 -0.599112,1.41471 -1.208149,0.74173 z m 23.333161,0.14191 c -0.09107,-0.23732 -0.167407,-0.92778 -0.169635,-1.53434 -0.005,-1.36494 -0.226631,-1.73023 -1.209124,-1.99299 -0.998276,-0.26698 -0.980946,-0.63545 0.04411,-0.93796 0.448421,-0.13233 0.924671,-0.48952 1.058333,-0.79375 0.362352,-0.82475 1.375526,-0.87274 1.677141,-0.0794 0.184274,0.48468 0.509619,0.68511 1.323343,0.81523 0.593447,0.0949 1.078994,0.26638 1.078994,0.38108 0,0.46153 -0.682974,0.84353 -1.508125,0.84353 -0.84668,0 -0.873924,0.0341 -0.899499,1.12448 -0.03646,1.55466 -0.317891,2.43002 -0.811831,2.52514 -0.229971,0.0443 -0.492641,-0.11365 -0.583711,-0.35098 z m 6.764661,0.16107 c -1.57135,-0.19018 -1.781556,-0.40361 -2.03014,-2.06129 -0.234286,-1.56233 0.04513,-2.77561 0.614256,-2.66726 0.344215,0.0655 0.456052,0.45137 0.518989,1.79052 0.09226,1.9632 0.344146,2.38874 1.41393,2.38874 0.870141,0 1.28397,-0.72485 1.28397,-2.24896 0,-1.44723 0.435349,-2.29909 1.124906,-2.20116 0.564208,0.0801 0.598791,0.21753 0.670613,2.66418 l 0.07573,2.57969 -1.13406,-0.0372 c -0.623731,-0.0205 -1.765919,-0.11373 -2.53819,-0.20721 z m 5.482024,-0.32796 c -0.359495,-0.67172 -0.18705,-4.08571 0.227301,-4.50006 0.186407,-0.18641 0.453805,-0.0904 0.849082,0.30488 0.513837,0.51384 0.610841,0.5316 0.886354,0.16232 0.170154,-0.22807 0.676834,-0.48679 1.125956,-0.57494 1.122209,-0.22025 1.751319,0.43281 1.644819,1.7074 -0.0638,0.7635 -0.20165,0.97654 -0.67547,1.04383 -0.438411,0.0623 -0.595311,-0.0481 -0.595311,-0.41893 0,-0.72497 -0.256013,-0.87924 -0.894682,-0.53913 -0.777711,0.41414 -1.203651,1.02864 -1.21357,1.7508 -0.01,0.72724 -0.455623,1.63625 -0.802164,1.63625 -0.135281,0 -0.383823,-0.25759 -0.552315,-0.57242 z m 76.912922,0.15391 c -0.25321,-0.65985 -0.17929,-4.16932 0.097,-4.60636 0.43762,-0.69218 0.8487,0.0959 0.98667,1.89161 0.17161,2.23344 -0.56259,4.0727 -1.08368,2.71475 z m 3.31208,-0.0488 c -0.24128,-0.45083 -0.3733,-1.95107 -0.32222,-3.66164 l 0.0245,-0.82168 2.28867,-0.0105 c 2.05705,-0.009 2.3516,0.0524 2.91042,0.61121 0.49752,0.49753 0.62093,0.90168 0.61769,2.02284 -0.008,2.61495 -0.74939,2.74031 -1.36419,0.23053 -0.19335,-0.78933 -0.4977,-1.48297 -0.67632,-1.54142 -0.51414,-0.16825 -1.63058,1.22792 -1.82412,2.28117 -0.2496,1.35835 -1.14572,1.84014 -1.65447,0.88952 z M 47.3377,280.14573 c -1.27385,-0.18631 -2.180747,-0.71162 -1.929726,-1.11778 0.220845,-0.35733 1.164093,-0.28143 2.408545,0.19383 0.679524,0.25952 1.402268,0.35806 1.833054,0.24994 1.062369,-0.26664 0.468204,-0.64481 -1.618049,-1.02985 -1.973281,-0.36419 -2.348219,-0.72097 -1.401736,-1.33381 0.612955,-0.39689 3.790956,-1.22513 4.700892,-1.22513 0.555932,0 0.864188,0.5979 0.626968,1.21608 -0.124299,0.32393 -0.35356,0.37761 -0.983883,0.2304 -2.159495,-0.50434 -2.829713,0.009 -0.846307,0.64856 2.392638,0.77118 2.262715,1.97092 -0.240096,2.21708 -0.727604,0.0716 -1.874951,0.0494 -2.549662,-0.0493 z m 20.945185,0.002 c -1.105004,-0.19671 -1.584982,-0.98987 -1.59058,-2.6284 -0.0044,-1.28098 0.364503,-2.16542 0.903142,-2.16542 0.451106,0 0.615664,0.42779 0.838414,2.17959 0.199028,1.56523 0.480121,2.05374 1.181743,2.05374 0.654704,0 0.821505,-0.34185 1.153298,-2.36362 0.238786,-1.45504 0.375758,-1.75036 0.842764,-1.81703 0.715634,-0.10217 1.069443,0.79118 1.26279,3.18847 l 0.144039,1.78593 -1.908275,-0.0348 c -1.04955,-0.0192 -2.321852,-0.10845 -2.827335,-0.19843 z m 7.798229,-0.005 c -1.640274,-0.29088 -2.248959,-0.72509 -2.248959,-1.60432 0,-1.35072 1.559182,-2.36647 3.967811,-2.58488 1.620613,-0.14695 2.646773,0.20016 2.646773,0.8953 0,0.35288 -0.229127,0.38942 -1.469811,0.23441 -1.641586,-0.2051 -2.763523,0.26368 -2.763523,1.1547 0,0.86403 0.684131,1.16998 2.253909,1.00796 1.119918,-0.11558 1.450258,-0.0677 1.450258,0.21025 0,0.60974 -2.125133,0.99006 -3.836458,0.68658 z M 122.976,280.00808 c -1.38816,-0.50281 -1.78342,-0.89648 -1.78342,-1.77623 0,-1.35151 1.14674,-2.13235 3.63049,-2.47207 1.48225,-0.20273 1.43471,-0.13415 1.74856,-2.52262 0.0332,-0.25242 0.33941,-0.39688 0.84136,-0.39688 h 0.78922 l -0.0891,2.79755 c -0.049,1.53865 -0.16866,3.18658 -0.26591,3.66207 -0.17672,0.86403 -0.17786,0.86458 -2.02666,0.9665 -1.14806,0.0633 -2.22721,-0.0347 -2.84455,-0.25832 z m 3.24366,-1.89088 c 0,-0.68384 -1.03007,-1.48394 -1.66718,-1.29499 -1.4235,0.42218 -1.62542,1.74357 -0.38334,2.50862 l 0.85989,0.52964 0.59532,-0.68058 c 0.32742,-0.37431 0.59531,-0.85253 0.59531,-1.06269 z m 4.9757,1.89362 c -0.6831,-0.1839 -1.42724,-0.4881 -1.65365,-0.67599 -0.90961,-0.75492 -0.16372,-2.92267 1.00566,-2.92267 0.32645,0 0.73245,-0.13891 0.90222,-0.30868 0.4084,-0.40841 2.44335,-0.39413 3.45334,0.0242 1.66805,0.69093 1.26014,1.71091 -0.84124,2.10349 -0.70047,0.13087 -1.3957,0.36006 -1.54496,0.50931 -0.78962,0.78962 1.19742,1.15678 2.43418,0.44978 0.91649,-0.52391 1.10836,-0.4883 1.01059,0.1876 -0.14053,0.97149 -2.39601,1.27102 -4.76614,0.63294 z m 2.59146,-2.87555 c 0.29741,-0.29741 -1.1841,-0.23026 -1.76372,0.08 -0.88846,0.47548 -0.55471,0.74129 0.529,0.42131 0.57242,-0.16902 1.12805,-0.39458 1.23472,-0.50126 z m 21.61068,3.05227 c -1.46338,-0.1322 -2.19034,-1.00768 -2.19034,-2.63783 0,-1.42068 0.37362,-2.19589 1.05833,-2.19589 0.64181,0 0.95372,0.57663 1.19986,2.21816 0.20571,1.3719 0.92439,2.36177 1.54252,2.12457 0.25094,-0.0963 0.40902,-0.70675 0.48271,-1.86419 0.12003,-1.88493 0.59858,-2.56575 1.22727,-1.74599 0.47578,0.62035 0.29808,3.70821 -0.23271,4.04402 -0.38041,0.24066 -0.94156,0.25105 -3.08764,0.0571 z m 28.68888,0.0281 c -0.53959,-0.53959 0.0133,-4.86186 0.62188,-4.86186 0.38446,0 0.80948,2.06124 0.72533,3.51767 -0.0666,1.15311 -0.16741,1.3897 -0.61961,1.45443 -0.29703,0.0425 -0.62445,-0.007 -0.7276,-0.11024 z m 4.70724,-0.007 c -0.7833,-0.20308 -1.19168,-0.86946 -1.18221,-1.92906 0.009,-1.04375 0.35357,-1.6217 1.25049,-2.09948 0.81729,-0.43536 3.13552,-0.50636 3.53383,-0.10822 0.17686,0.17678 0.37524,0.96868 0.44084,1.75979 0.10762,1.29776 0.0564,1.47957 -0.52381,1.85974 -0.69083,0.45265 -2.65485,0.74131 -3.51914,0.51723 z m 3.2207,-1.83604 c 0.1947,-0.50736 -0.64115,-1.43152 -1.29473,-1.43152 -1.44754,0 -2.07142,1.44222 -0.96048,2.22036 0.50579,0.35426 0.65346,0.35439 1.33653,10e-4 0.42235,-0.2184 0.83576,-0.5739 0.91868,-0.79 z m -89.18521,1.13116 c -1.13124,-1.13124 -0.74261,-2.3637 1.00717,-3.19402 1.16171,-0.55127 3.51045,-0.62789 4.00761,-0.13074 0.34316,0.34316 0.62481,3.2554 0.34218,3.53804 -0.0681,0.0681 -1.14677,0.20241 -2.3971,0.29851 -2.20281,0.16933 -2.29462,0.15345 -2.95986,-0.51179 z m 3.27291,-0.42862 c 0.4372,-0.81693 0.34568,-2.13406 -0.14829,-2.13406 -0.46871,0 -1.95907,0.98217 -1.95907,1.29105 0,0.3575 1.07194,1.35479 1.4562,1.35479 0.2075,0 0.50052,-0.2303 0.65116,-0.51178 z m 3.31309,0.67071 c -0.42141,-0.31096 -0.46005,-0.45441 -0.19486,-0.72327 0.26685,-0.27055 0.72206,-0.22027 2.35472,0.26007 1.29763,0.38176 2.11537,0.504 2.27875,0.34062 0.44093,-0.44092 -0.031,-0.78459 -1.49451,-1.08842 -1.75178,-0.36367 -2.48782,-0.82947 -1.9723,-1.24816 0.51042,-0.41456 2.75409,-1.13384 4.12136,-1.32125 l 1.17217,-0.16066 -0.17512,1.16776 c -0.0963,0.64226 -0.25969,1.58254 -0.36307,2.0895 l -0.18795,0.92175 -2.50677,0.075 c -1.88034,0.0562 -2.63812,-0.022 -3.03242,-0.31292 z m 5.16288,-1.9581 c 0,-0.71316 -1.32242,-1.09001 -2.0995,-0.59829 -0.2889,0.18281 -0.16234,0.30269 0.52917,0.50126 1.16756,0.33525 1.57033,0.36014 1.57033,0.097 z m 27.57554,1.91646 c -0.4099,-0.28711 -0.58804,-0.68206 -0.58804,-1.30372 0,-1.14245 0.76316,-1.76178 2.91487,-2.36552 1.4863,-0.41703 1.67151,-0.4197 2.2624,-0.0325 0.51738,0.33901 0.64357,0.64589 0.64357,1.56521 0,0.81195 0.15524,1.28401 0.53542,1.62806 0.79808,0.72226 0.2484,0.91166 -2.65936,0.91633 -1.8585,0.003 -2.67532,-0.10416 -3.10886,-0.40782 z m 3.63095,-0.49688 c 0.47826,-0.57627 0.24608,-2.11077 -0.33607,-2.22112 -0.56862,-0.10779 -1.50167,0.65759 -1.50167,1.23182 0,0.49763 0.76328,1.36889 1.19924,1.36889 0.17791,0 0.46523,-0.17082 0.6385,-0.37959 z m 27.6022,-5.36002 c 0.25743,-0.0671 0.61461,-0.0627 0.79375,0.01 0.17913,0.0725 -0.0315,0.12736 -0.46806,0.12197 -0.43656,-0.005 -0.58313,-0.0647 -0.32569,-0.13177 z m 11.37708,0 c 0.25743,-0.0671 0.61462,-0.0627 0.79375,0.01 0.17913,0.0725 -0.0315,0.12736 -0.46806,0.12197 -0.43656,-0.005 -0.58312,-0.0647 -0.32569,-0.13177 z M 42.912101,268.50704 c 0.634934,-0.86368 1.920515,-2.62328 2.856847,-3.91023 7.704212,-10.58914 10.140016,-13.81928 10.537577,-13.97399 0.736695,-0.28668 2.459765,1.96055 10.188419,13.28773 l 3.475162,5.09322 21.311755,-0.003 c 11.721469,-0.002 21.752339,-0.0758 22.290829,-0.16478 0.89753,-0.14838 0.96711,-0.22167 0.83547,-0.87989 -0.079,-0.3949 -0.16238,-2.00892 -0.18532,-3.58669 l -0.0417,-2.86868 4.09946,0.07 c 2.76026,0.0471 4.16348,0.17064 4.29543,0.37804 0.10778,0.16941 0.19779,0.97418 0.20001,1.78837 0.004,1.47566 -0.47187,2.35611 -1.27355,2.35611 -0.58325,0 -0.31041,0.51531 0.49275,0.93064 0.52789,0.27298 0.8562,0.68286 0.95911,1.19742 0.15052,0.75258 0.21167,0.78235 1.60692,0.78235 1.27932,0 1.42742,-0.0546 1.2553,-0.46302 -0.51757,-1.22808 -0.43419,-6.01864 0.12038,-6.91594 0.37617,-0.60866 1.38881,-0.0428 3.11585,1.74096 l 1.6425,1.69649 1.71707,-1.7512 c 1.51915,-1.54936 1.81779,-1.74154 2.59084,-1.66727 l 0.87376,0.0839 v 2.92259 c 0,2.3525 -0.0915,3.06214 -0.46912,3.63802 l -0.46912,0.71543 h 1.19673 c 1.04966,0 1.19672,-0.0702 1.19672,-0.57116 0,-0.56224 2.7424,-5.07956 3.78934,-6.24186 1.17276,-1.30196 2.43142,-0.55586 4.51684,2.67746 1.47631,2.28894 2.96554,3.78698 4.25381,4.27897 1.08872,0.41579 1.19416,0.41123 2.29423,-0.0992 1.94181,-0.90097 2.00994,-0.98772 1.27123,-1.61872 -0.91304,-0.77991 -1.82356,-1.23236 -2.88901,-1.43557 -1.2782,-0.2438 -2.65311,-1.62823 -2.65311,-2.6715 0,-1.73505 1.53649,-2.78509 4.07532,-2.78509 1.70666,0 2.66418,0.31273 2.90873,0.95001 0.31674,0.82542 -0.23925,0.97016 -1.81662,0.47294 -1.35591,-0.42741 -1.57786,-0.43534 -2.21277,-0.079 -0.45482,0.25529 -0.7057,0.61917 -0.7057,1.02358 0,0.51808 0.42705,0.86229 2.44931,1.97423 1.34713,0.74071 2.63893,1.62196 2.87067,1.95833 0.62114,0.90155 0.28548,2.36123 -0.63786,2.77382 -0.54746,0.24463 -13.78063,0.33592 -56.901133,0.39254 l -56.187766,0.0738 z m 22.098787,0.14616 c 0.119846,-0.12005 0.02225,-0.32776 -0.216844,-0.46158 -0.239112,-0.13381 -0.819791,-0.92855 -1.290402,-1.76609 -1.375953,-2.44876 -6.325715,-9.85717 -6.585848,-9.85717 -0.449048,0 -8.750223,11.56669 -8.750223,12.19238 0,0.3298 16.511982,0.22438 16.843317,-0.10754 z m 56.049392,0.0326 c -0.29104,-0.16606 -1.16516,-0.81728 -1.94248,-1.44716 -1.63032,-1.32107 -2.68772,-1.51818 -2.68772,-0.501 0,0.35433 -0.11147,0.9374 -0.2477,1.29571 -0.13623,0.35832 -0.17591,0.72325 -0.0882,0.81098 0.0877,0.0877 1.36004,0.15588 2.82738,0.15145 2.13415,-0.006 2.56202,-0.0684 2.13871,-0.30998 z m 12.80099,-1.20333 c -0.0172,-0.83674 -0.10708,-1.87505 -0.19969,-2.30735 l -0.16839,-0.78599 -1.26888,1.77818 c -0.69789,0.978 -1.44159,1.77818 -1.65267,1.77818 -0.21108,0 -0.94921,-0.72857 -1.64028,-1.61905 l -1.25649,-1.61906 -0.1964,1.55291 c -0.10802,0.8541 -0.25724,1.71248 -0.33159,1.90752 -0.27252,0.71483 0.22819,0.83601 3.45402,0.83601 h 3.29168 z m 11.60848,1.19063 c -0.0597,-0.18191 -0.50397,-0.59862 -0.98722,-0.92605 -1.46659,-0.99368 -3.93543,-0.6618 -5.14086,0.69109 l -0.50403,0.56568 h 3.37035 c 2.57781,0 3.34481,-0.0778 3.26176,-0.33072 z m -2.37752,-3.64314 c 0.0418,-0.2211 -0.0986,-0.63782 -0.31211,-0.92604 -0.38668,-0.52205 -0.3897,-0.52203 -0.79298,0.005 -0.67386,0.88085 -0.53933,1.50394 0.3037,1.40664 0.39893,-0.046 0.75956,-0.26462 0.80139,-0.48571 z m -23.50703,-0.86971 c 0.4984,-0.17369 0.94921,-0.44785 1.00181,-0.60925 0.19906,-0.61076 -3.92287,-0.69621 -4.29808,-0.0891 -0.0706,0.11418 0.0599,0.39579 0.2899,0.6258 0.48903,0.48903 1.72566,0.51887 3.00637,0.0725 z m -17.61643,4.24724 c -0.0864,-0.1398 -0.21742,-1.52688 -0.29115,-3.0824 -0.18293,-3.85958 -0.34775,-3.7296 4.72921,-3.7296 3.91324,0 3.97032,0.008 4.64938,0.6875 0.67667,0.67667 0.68474,0.72952 0.51262,3.3559 -0.0962,1.46762 -0.2026,2.69121 -0.2365,2.71908 -0.25194,0.20712 -9.23679,0.25464 -9.36356,0.0495 z m 7.05297,-3.41171 v -2.15597 l -2.29836,0.1622 c -2.91554,0.20575 -3.46407,0.61945 -3.10074,2.33858 0.30745,1.45471 0.97665,1.80216 3.48087,1.80725 l 1.91823,0.004 z m -38.76863,3.20269 c -0.213723,-0.34581 0.09841,-4.5432 0.436912,-5.87537 0.275219,-1.08313 0.843526,-1.29736 1.279678,-0.4824 0.150056,0.28038 0.362606,1.50077 0.472332,2.71198 l 0.199498,2.20219 2.636483,0.20231 c 3.339129,0.25624 4.047964,0.75177 1.816248,1.26972 -1.432972,0.33257 -6.631392,0.31097 -6.841151,-0.0284 z m 10.246546,-0.0413 c -0.398865,-0.39887 -0.434671,-5.58377 -0.04361,-6.31448 0.324443,-0.60622 1.526442,-0.68991 1.744575,-0.12146 0.08238,0.21467 0.227468,1.49459 0.322427,2.84427 l 0.172648,2.45396 2.144763,0.0762 2.144766,0.0762 0.168039,-1.39914 c 0.09242,-0.76954 0.169077,-1.85346 0.170342,-2.40873 0.0027,-1.16461 0.391109,-2.03313 0.909341,-2.03313 0.57205,0 0.680458,0.63574 0.680458,3.99039 v 3.15336 H 84.86528 c -2.795765,0 -4.146349,-0.0982 -4.365625,-0.3175 z m 11.694208,-0.0539 c -0.07839,-0.20427 -0.04488,-1.78184 0.07445,-3.50573 l 0.216969,-3.13433 3.445233,-0.0734 c 3.653913,-0.0779 4.632494,0.17222 4.278974,1.09347 -0.12696,0.33088 -0.533501,0.43984 -1.696633,0.45475 -2.143522,0.0275 -3.849529,0.32207 -3.970081,0.68554 -0.104518,0.31513 0.02392,0.37208 1.977403,0.8768 1.891147,0.48861 1.295506,1.19245 -1.389062,1.64137 -0.365117,0.0611 -0.556932,0.33387 -0.618726,0.87998 -0.04926,0.43532 -0.212661,0.94032 -0.363125,1.12222 -0.371461,0.44907 -1.778698,0.41981 -1.9554,-0.0407 z m 18.150796,-11.49472 c -12.045231,-9.90406 -27.697723,-22.26513 -28.193729,-22.26513 -0.304491,0 -0.842262,0.30897 -1.195052,0.6866 -0.352787,0.37763 -0.955968,0.85027 -1.3404,1.05032 -0.645123,0.3357 -0.785117,0.30131 -1.817222,-0.44634 -1.32665,-0.96102 -3.436935,-3.02888 -3.436935,-3.36784 0,-0.35472 5.23874,-5.3183 5.959936,-5.6469 0.496935,-0.22642 0.749043,-0.18368 1.268571,0.21506 0.71941,0.55216 7.919072,6.53001 20.571321,17.08031 4.59412,3.83088 10.75093,8.94438 13.6818,11.36331 2.93086,2.41894 5.25415,4.47277 5.16285,4.56406 -0.0913,0.0913 -1.60467,0.15983 -3.36305,0.15229 l -3.19705,-0.0137 z m -81.293236,2.14156 c -0.555247,-0.0543 -0.992188,-0.24005 -0.992188,-0.42188 0,-0.1787 0.978623,-1.45144 2.174719,-2.8283 2.410016,-2.77424 27.385096,-28.00245 29.380727,-29.67851 1.185254,-0.99545 1.296024,-1.03499 1.852083,-0.66107 0.325287,0.21874 6.466198,5.29577 13.646468,11.28229 7.180271,5.98652 13.669321,11.33838 14.420108,11.89302 1.874975,1.38512 2.136568,1.72612 1.640223,2.13805 -0.26838,0.22273 -1.179507,0.29647 -2.885969,0.23354 -2.47899,-0.0914 -2.504514,-0.0993 -4.307417,-1.33528 -0.997506,-0.68382 -3.83771,-2.87052 -6.311564,-4.85934 -2.473855,-1.98881 -5.938825,-4.72104 -7.699934,-6.07162 -1.761109,-1.35059 -4.430861,-3.48316 -5.932779,-4.73906 l -2.730759,-2.28344 -13.514097,13.61761 -13.5141,13.61761 -2.116667,0.0967 c -1.164167,0.0532 -2.563151,0.053 -3.108854,-2.7e-4 z m 30.552111,-13.36034 0.07341,-3.77031 4.034896,-0.073 4.034896,-0.073 v 3.84335 3.84335 H 63.63843 59.530125 Z m 7.195521,3.08055 c 0.476203,-0.18274 0.551694,-1.21285 0.144624,-1.97346 -0.18493,-0.34555 -0.554469,-0.51177 -1.137708,-0.51177 -1.004314,0 -1.498817,0.39959 -1.498817,1.21114 0,0.68322 0.41707,1.07447 1.322916,1.24101 0.363803,0.0669 0.681488,0.13783 0.705964,0.15765 0.02447,0.0198 0.232839,-0.0362 0.463021,-0.12457 z m -3.673232,-0.64819 c 0.09505,-0.15379 0.101116,-0.56529 0.01349,-0.91445 -0.117459,-0.468 -0.402894,-0.68053 -1.086141,-0.8087 -1.142153,-0.21427 -1.714773,0.20029 -1.714773,1.24142 0,0.73602 0.0435,0.76135 1.307302,0.76135 0.719015,0 1.38507,-0.12583 1.480118,-0.27962 z m -0.154865,-3.54084 c 0.173855,-0.20948 0.27773,-0.71549 0.230835,-1.12448 -0.06803,-0.5933 -0.235786,-0.76085 -0.829971,-0.82897 -0.983721,-0.11277 -2.033419,0.5946 -2.033419,1.37029 0,0.33619 0.07937,0.69064 0.17639,0.78765 0.329094,0.3291 2.138342,0.17847 2.456165,-0.20449 z m 4.114321,-0.80975 v -1.05833 h -1.322917 c -1.256152,0 -1.327251,0.0378 -1.408792,0.74996 -0.149567,1.30613 0.08467,1.53643 1.472239,1.44746 l 1.25947,-0.0807 z m 31.327025,-3.28152 c -1.384988,-1.11459 -2.4482,-2.201 -2.725129,-2.78458 -0.624946,-1.31698 -0.92234,-6.3241 -0.395287,-6.65535 0.563554,-0.35418 5.470871,-0.22285 5.930631,0.15872 0.31178,0.25875 0.38424,1.02731 0.35802,3.79774 -0.041,4.335 -0.28322,7.10941 -0.6306,7.22354 -0.14663,0.0482 -1.288561,-0.73486 -2.537635,-1.74007 z"
       id="path1044"
       inkscape:connector-curvature="0" />
  </g>
</svg>
